<?xml version="1.0" encoding="utf-8"?>
<!-- Generator: Adobe Illustrator 13.0.2, SVG Export Plug-In . SVG Version: 6.00 Build 14948)  -->
<!DOCTYPE svg PUBLIC "-//W3C//DTD SVG 1.1//EN" "http://www.w3.org/Graphics/SVG/1.1/DTD/svg11.dtd">
<svg version="1.1" id="Ebene_1" xmlns="http://www.w3.org/2000/svg" xmlns:xlink="http://www.w3.org/1999/xlink" x="0px" y="0px"
	 width="309px" height="75px" viewBox="0 0 309 75" enable-background="new 0 0 309 75" xml:space="preserve">
<path fill="#373737" d="M7,12c48,0,96,0,144,0c-0.083,0.25,0,12,0,12c-43.473,0.258-94.396,0.062-144,0C7,20,7,16,7,12z"/>
<path fill="#373737" d="M300,12c0,19-0.133,39.011-0.133,58.011l-12.866-0.065V24.076C249.992,24.125,156,24,156,24l-0.064-12.058
	C203.602,11.942,252.334,12,300,12z"/>
<path fill="#373737" d="M7,27c23.333,0,46.667,0,70,0v43c-4,0-8,0-12,0V41c-19.333,0-38.667,0-58,0C7,36.333,7,31.667,7,27z"/>
<path fill="#373737" d="M81,70V27c23.333,0,46.667,0,70,0l-0.167,13.917C131.833,40.917,112,41,93,41c0,9.667,0,19.333,0,29"/>
<path fill="#373737" d="M89,70"/>
<path fill="#373737" d="M156.066,70.074L156,27l14.001-0.064l0.065,43.136"/>
<path fill="#373737" d="M173,70c-0.234-7.752-0.033-32.319,0-43c18,0,36,0,54,0c0,14.333,0,28.667,0,43h-4h-8c-0.333,0-0.667,0-1,0
	c0-9.667,0-19.333,0-29l-29.133-0.055L185,70"/>
<path fill="#373737" d="M270.936,70.012L271,41h-27l0.001,28.943c-0.333,0-2.668,0.057-3.001,0.057h-10c-0.333,0-0.667,0-1,0
	c0-14.333,0-28.667,0-43c18,0,36,0,54,0c0,14.333,0,28.667,0,43"/>
</svg>
