<svg fill="#000000" xmlns="http://www.w3.org/2000/svg"  viewBox="0 0 50 50" width="50px" height="50px"><path d="M 8.9882812 3.9355469 C 5.7212813 3.9355469 3.0644531 6.5933281 3.0644531 9.8613281 C 3.0644531 13.128328 5.7212813 15.787109 8.9882812 15.787109 C 12.255281 15.787109 14.914062 13.128328 14.914062 9.8613281 C 14.914062 6.5933281 12.255281 3.9355469 8.9882812 3.9355469 z M 25.787109 6.0429688 C 22.281109 6.0709687 19.144359 6.3484219 16.318359 6.8574219 C 16.700359 7.7854219 16.914063 8.7973281 16.914062 9.8613281 C 16.914062 11.503328 16.411734 13.031828 15.552734 14.298828 C 15.607734 14.304828 15.695 14.321953 15.75 14.376953 C 15.75 13.964953 15.996094 13.964844 15.996094 13.964844 C 15.996094 13.964844 15.996125 13.880859 16.078125 13.880859 C 16.490125 13.963859 17.645625 14.540109 18.140625 14.787109 C 18.635625 15.034109 18.636719 15.117187 18.636719 15.117188 C 18.636719 15.117188 19.791094 15.118156 20.121094 15.035156 C 20.451094 15.035156 21.028516 14.787062 21.853516 14.539062 C 22.678516 14.292063 22.842812 14.210937 23.007812 14.210938 C 23.172813 14.210938 24.658516 14.293031 25.978516 14.457031 C 27.298516 14.622031 28.535203 15.11625 28.783203 15.28125 L 29.195312 15.363281 L 29.277344 15.117188 L 28.617188 14.869141 C 28.617188 14.869141 28.701172 14.458 28.701172 14.375 C 28.701172 14.293 28.782234 14.210938 28.865234 14.210938 C 28.947234 14.210938 29.6905 14.375031 29.9375 14.457031 C 30.1845 14.540031 31.01075 15.117188 31.09375 15.117188 C 31.17675 15.117188 31.175781 15.199219 31.175781 15.199219 C 31.175781 15.364219 31.011719 15.693359 31.011719 15.693359 C 31.011719 15.693359 31.258797 15.776375 31.341797 15.859375 C 31.424797 15.941375 31.670969 16.105516 31.917969 16.353516 C 32.164969 16.518516 32.082031 16.765625 32.082031 16.765625 L 32.660156 17.34375 L 32.660156 17.589844 L 34.0625 18.992188 L 34.0625 19.074219 L 33.402344 19.486328 C 33.402344 19.486328 34.30875 19.403422 34.96875 19.732422 C 35.62875 20.062422 35.710937 20.227578 35.710938 20.392578 C 35.545938 20.474578 35.298828 20.558594 35.298828 20.558594 C 34.803828 20.723594 33.566406 21.548828 33.566406 21.548828 L 33.566406 21.630859 L 34.226562 21.794922 C 34.968562 21.134922 36.289297 20.887734 37.279297 21.052734 C 39.612297 21.507734 41.426906 22.716203 42.503906 24.033203 C 43.333906 25.048203 43.964625 25.994172 44.390625 26.701172 C 47.374625 18.674172 46.887953 11.650484 46.876953 11.521484 L 46.835938 11.033203 L 46.427734 10.765625 C 41.691734 7.656625 35.146203 6.1129688 26.408203 6.0429688 L 25.787109 6.0429688 z M 15.914062 14.210938 C 15.914062 14.210938 15.833031 14.457109 15.832031 14.787109 C 17.152031 14.952109 17.398438 15.199219 17.398438 15.199219 C 17.398438 15.199219 17.893625 15.117188 18.140625 15.117188 C 17.729625 14.787187 15.914062 14.210938 15.914062 14.210938 z M 22.431641 14.375 C 22.349641 14.376 20.205078 15.117188 20.205078 15.117188 C 20.205078 15.117188 20.782234 15.447266 20.865234 15.447266 C 20.947234 15.447266 22.102656 15.860391 22.597656 16.025391 C 23.009656 16.190391 23.257844 16.025391 23.339844 16.025391 C 23.422844 16.025391 24.824219 15.199219 24.824219 15.199219 C 23.587219 14.704219 22.431641 14.375 22.431641 14.375 z M 15.337891 14.787109 L 15.255859 15.035156 L 15.255859 14.953125 C 15.194859 14.938125 15.150703 14.92225 15.095703 14.90625 C 14.745703 15.32825 14.350875 15.711688 13.921875 16.054688 C 13.898875 16.390687 13.853516 17.057687 13.853516 17.179688 C 13.771516 17.344687 14.017578 17.427734 14.017578 17.427734 L 13.935547 18.333984 L 14.429688 18.333984 L 14.511719 17.757812 L 14.511719 18.087891 L 14.595703 18.087891 L 14.595703 17.591797 L 14.511719 17.591797 L 14.511719 17.261719 L 15.253906 17.673828 L 15.337891 17.839844 L 15.501953 18.003906 L 15.667969 18.003906 L 15.75 17.921875 L 15.75 17.839844 C 15.255 17.839844 15.255859 17.591797 15.255859 17.591797 C 15.255859 17.591797 15.337922 17.014609 15.419922 16.849609 C 15.502922 16.684609 15.832031 16.767578 15.832031 16.767578 L 15.75 16.685547 L 15.585938 16.685547 C 15.420938 16.602547 14.924766 16.272453 14.759766 16.189453 L 14.759766 16.107422 L 14.841797 16.025391 L 14.841797 15.695312 L 14.925781 15.695312 C 14.925781 15.612312 15.007812 15.611297 15.007812 15.529297 C 15.172812 15.529297 16.410156 15.283203 16.410156 15.283203 L 16.359375 15.271484 C 16.551375 15.249484 16.904297 15.199219 16.904297 15.199219 L 15.337891 14.787109 z M 25.486328 15.365234 C 25.321328 15.365234 25.238281 15.449219 25.238281 15.449219 C 25.238281 15.449219 24.744031 15.778391 24.332031 16.025391 C 23.920031 16.272391 23.837859 16.356484 23.755859 16.521484 C 23.672859 16.604484 23.919922 16.933594 23.919922 16.933594 L 24.580078 17.757812 C 24.662078 17.757812 24.910156 17.923828 24.910156 17.923828 C 24.910156 17.923828 26.229688 17.840812 27.054688 17.757812 L 29.197266 17.757812 C 29.280266 17.757812 29.19625 17.427625 29.03125 17.015625 C 28.86625 16.685625 28.619141 15.861328 28.619141 15.861328 C 28.537141 15.696328 28.372813 15.69625 27.382812 15.53125 C 26.475812 15.44825 25.651328 15.365234 25.486328 15.365234 z M 20.947266 16.107422 C 20.901266 16.107422 20.832344 16.160703 20.777344 16.220703 L 20.617188 16.273438 L 20.533203 16.849609 L 20.617188 16.849609 L 20.78125 16.767578 C 20.78125 16.767578 20.865297 16.766609 21.029297 16.849609 C 21.194297 16.849609 21.275391 16.684531 21.275391 16.519531 C 21.275391 16.278531 21.04325 16.195406 21.03125 16.191406 C 21.00425 16.117406 20.947266 16.107422 20.947266 16.107422 z M 13.640625 16.265625 C 13.422625 16.424625 13.197844 16.571031 12.964844 16.707031 C 13.004844 16.842031 13.111328 16.849609 13.111328 16.849609 L 13.029297 17.757812 L 13.605469 17.757812 L 13.605469 17.675781 L 13.523438 17.675781 L 13.523438 17.591797 L 13.441406 17.591797 L 13.523438 17.427734 L 13.605469 17.015625 L 13.523438 16.931641 L 13.523438 16.767578 L 13.605469 16.685547 L 13.640625 16.265625 z M 21.9375 16.4375 L 21.9375 17.097656 C 21.9375 17.097656 22.844031 17.098703 24.082031 17.345703 C 23.257031 16.768703 21.9375 16.4375 21.9375 16.4375 z M 29.691406 16.603516 L 29.279297 16.767578 L 29.775391 17.675781 L 31.425781 18.251953 C 30.764781 16.850953 29.691406 16.603516 29.691406 16.603516 z M 12.830078 16.792969 C 11.692078 17.425969 10.382234 17.789062 8.9902344 17.789062 C 7.7502344 17.789062 6.5792031 17.495375 5.5332031 16.984375 C 5.7152031 18.645375 6.0265469 20.587313 6.5605469 22.695312 C 6.9305469 24.155313 8.0282188 25.318359 9.4492188 25.818359 C 11.026219 26.372359 12.933656 26.804031 14.597656 27.082031 C 22.283656 28.309031 29.714672 33.177219 32.263672 37.449219 C 32.263672 37.449219 32.548391 37.968547 32.650391 38.185547 C 33.259391 39.404547 33.561625 40.620266 33.515625 41.697266 C 37.741625 38.430266 40.648719 34.565078 42.636719 30.705078 C 42.400719 28.635078 40.22675 28.234375 39.34375 28.234375 C 37.61175 28.234375 35.877625 27.658828 34.640625 26.173828 L 34.640625 26.255859 C 33.898625 27.245859 33.074141 27.246094 32.744141 27.246094 C 32.414141 27.246094 31.342687 26.750859 30.929688 26.255859 C 30.517688 25.760859 30.517578 24.853516 30.517578 24.853516 L 28.867188 24.277344 L 26.804688 23.121094 L 26.474609 23.039062 C 25.814609 23.369062 24.990047 23.122922 24.248047 22.544922 C 24.165047 22.874922 23.752813 23.699328 23.257812 24.111328 C 22.762812 24.523328 21.77325 25.101563 21.03125 25.101562 C 20.28925 25.101562 18.639531 24.276094 18.144531 23.121094 C 17.649531 21.966094 18.144531 20.728516 18.144531 20.728516 L 17.318359 20.564453 L 16.988281 20.152344 C 16.988281 20.152344 15.999734 20.976484 14.927734 20.646484 C 13.855734 20.316484 12.946219 19.410938 12.699219 18.585938 C 12.534219 17.760938 12.782234 17.018547 12.865234 16.935547 C 12.849234 16.880547 12.843078 16.842969 12.830078 16.792969 z M 19.361328 16.984375 C 19.299453 16.99475 19.298828 17.015625 19.298828 17.015625 C 20.700828 17.345625 21.113313 17.426766 21.195312 17.509766 C 21.195312 17.509766 21.279328 17.675812 21.361328 17.757812 C 20.206328 17.510813 19.134719 17.675812 18.886719 17.757812 C 19.051719 18.004812 19.051719 18.334031 18.886719 18.582031 C 18.721719 18.747031 18.226563 18.994141 18.226562 18.994141 L 18.060547 18.994141 L 17.648438 18.910156 C 17.276438 18.836156 17.373484 18.229328 17.396484 18.111328 C 17.382484 18.214328 17.380391 18.317016 17.400391 18.416016 C 17.483391 18.828016 17.5655 18.828125 17.8125 18.828125 C 17.4005 18.663125 17.4825 18.003797 17.8125 17.591797 C 18.0595 17.261797 18.308594 17.507812 18.308594 17.507812 C 18.308594 17.507812 18.0605 17.17875 17.8125 17.34375 C 17.6295 17.46575 17.448437 17.768938 17.398438 18.085938 L 16.904297 18.25 C 16.739297 17.92 15.998047 17.013672 15.998047 17.013672 L 15.832031 17.673828 C 15.914031 17.755828 16.328156 18.415078 16.410156 18.580078 L 16.162109 18.826172 C 16.162109 18.826172 16.080078 18.992219 16.080078 19.074219 C 16.080078 19.157219 15.998047 19.238281 15.998047 19.238281 L 15.667969 19.404297 L 15.585938 19.404297 L 14.431641 18.5 L 14.431641 19.160156 L 14.513672 19.160156 C 14.596672 19.325156 14.760828 19.655313 15.173828 19.820312 C 15.503828 19.985312 15.915078 19.985344 16.080078 19.902344 C 16.245078 19.985344 16.327156 19.984406 16.410156 20.066406 C 16.740156 20.231406 16.822266 20.150391 16.822266 20.150391 L 17.316406 19.984375 L 17.400391 19.984375 L 17.482422 19.902344 L 17.648438 19.572266 C 17.648438 19.572266 18.472734 19.654297 18.802734 19.654297 C 19.132734 19.159297 20.204266 18.416984 20.947266 18.333984 C 21.689266 18.333984 22.927969 18.498281 23.917969 19.488281 C 24.824969 20.478281 24.578125 21.798828 24.578125 21.798828 L 26.392578 22.378906 L 25.566406 21.800781 C 24.906406 20.150781 23.339844 18.664063 23.339844 18.664062 C 23.339844 18.664062 22.927688 18.582031 22.679688 18.582031 C 22.432688 18.499031 22.267578 18.335938 22.267578 18.335938 C 22.267578 18.335938 22.185484 18.253859 22.021484 18.005859 L 21.855469 17.675781 C 21.855469 17.675781 21.690359 17.510703 21.443359 17.345703 C 21.196359 17.180703 20.289922 17.098625 19.794922 17.015625 C 19.547422 16.974125 19.423203 16.974 19.361328 16.984375 z M 15.503906 18.005859 L 15.337891 18.087891 L 15.337891 18.748047 L 15.503906 18.664062 L 15.503906 18.005859 z M 26.701172 18.253906 C 25.649547 18.253906 24.990234 18.335938 24.990234 18.335938 C 25.485234 18.912938 25.980469 19.738281 25.980469 19.738281 C 26.804469 18.913281 28.536672 18.583016 30.763672 18.666016 C 29.196172 18.336016 27.752797 18.253906 26.701172 18.253906 z M 23.751953 18.748047 C 24.246953 19.078047 24.990234 19.984375 24.990234 19.984375 L 25.236328 20.066406 L 25.732422 19.984375 C 24.825422 18.829375 23.751953 18.748047 23.751953 18.748047 z M 32.742188 18.996094 C 32.742188 18.996094 32.578094 19.326203 32.496094 19.408203 C 32.414094 19.490203 31.835859 19.572297 31.505859 19.654297 C 31.175859 19.819297 30.598594 20.066422 30.433594 20.232422 C 30.350594 20.314422 30.351562 20.562531 30.351562 20.644531 C 30.351562 20.644531 30.404844 20.671359 30.464844 20.693359 C 30.448844 20.677359 30.433594 20.660531 30.433594 20.644531 L 30.433594 20.398438 C 30.433594 20.398438 31.50625 19.572266 33.15625 19.572266 L 33.402344 19.078125 L 32.742188 18.996094 z M 30.464844 20.693359 C 30.489844 20.718359 30.5235 20.742719 30.5625 20.761719 L 30.599609 20.728516 C 30.563609 20.728516 30.511844 20.710359 30.464844 20.693359 z M 30.5625 20.761719 L 29.855469 21.388672 L 30.021484 21.552734 L 31.835938 22.130859 C 32.248937 21.800859 32.826172 21.71875 32.826172 21.71875 C 32.496172 21.55375 31.094641 20.975547 30.681641 20.810547 C 30.681641 20.810547 30.6225 20.791719 30.5625 20.761719 z M 22.513672 20.150391 C 21.606672 20.068391 20.947266 20.892578 20.947266 20.892578 L 21.607422 21.388672 L 21.771484 21.304688 L 22.513672 20.150391 z M 22.927734 20.314453 L 22.267578 21.470703 L 22.349609 21.552734 L 23.669922 21.634766 C 23.670922 20.727766 22.927734 20.314453 22.927734 20.314453 z M 20.617188 21.388672 C 20.040187 22.460672 20.451172 23.203125 20.451172 23.203125 L 21.193359 22.130859 L 21.193359 21.966797 L 20.617188 21.388672 z M 29.527344 21.634766 L 28.123047 22.873047 L 29.197266 23.203125 L 30.269531 22.048828 L 29.691406 21.800781 L 29.527344 21.634766 z M 35.492188 21.806641 C 35.128512 21.825264 34.785938 21.902625 34.476562 22.046875 C 34.559562 22.129875 34.640656 22.130891 34.722656 22.212891 C 35.217656 22.542891 35.465828 22.707219 35.548828 23.449219 C 35.630828 24.026219 35.464734 24.85075 35.052734 25.59375 C 37.363734 27.16175 40.581359 25.925109 41.818359 27.162109 C 41.602234 24.418984 38.037918 21.676279 35.492188 21.806641 z M 23.587891 22.212891 L 22.267578 22.296875 L 22.183594 22.378906 L 22.595703 23.699219 C 23.421703 23.120219 23.587891 22.212891 23.587891 22.212891 z M 30.929688 22.294922 L 29.773438 23.615234 L 30.599609 23.861328 C 30.764609 23.202328 31.423828 22.460938 31.423828 22.460938 L 30.929688 22.294922 z M 21.441406 22.626953 L 20.617188 23.615234 C 21.195187 24.109234 22.101562 23.863281 22.101562 23.863281 L 21.607422 22.626953 L 21.441406 22.626953 z M 34.310547 23.203125 C 33.980547 23.203125 33.404297 23.945312 33.404297 23.945312 L 33.568359 24.191406 L 33.650391 24.109375 L 34.310547 23.285156 L 34.310547 23.203125 z M 34.724609 23.285156 L 34.064453 24.191406 L 34.064453 24.275391 L 34.970703 24.275391 C 35.135703 23.698391 34.724609 23.285156 34.724609 23.285156 z M 33.15625 24.357422 C 32.74425 25.182422 32.826172 25.759766 32.826172 25.759766 L 33.238281 24.851562 L 33.238281 24.6875 C 33.320281 24.6875 33.23925 24.522422 33.15625 24.357422 z M 34.970703 24.769531 L 33.980469 24.853516 L 33.898438 24.935547 L 34.144531 26.007812 C 34.145531 26.006813 34.393625 25.759688 34.640625 25.429688 C 34.887625 25.099688 34.970703 24.769531 34.970703 24.769531 z M 33.404297 25.265625 L 32.908203 26.171875 L 32.992188 26.255859 C 33.404187 26.420859 33.816406 26.255859 33.816406 26.255859 L 33.486328 25.265625 L 33.404297 25.265625 z M 11.441406 29.546875 C 10.834234 29.553062 10.000906 29.666563 9.4414062 30.476562 C 12.321406 36.177563 17.173125 41.923328 25.328125 45.736328 L 26.117188 46.105469 L 26.832031 45.759766 C 28.748031 44.863766 30.473969 43.855438 32.042969 42.773438 C 32.699969 41.847438 32.771563 40.395109 32.101562 38.912109 C 32.039563 38.771109 31.743156 38.229563 31.660156 38.101562 C 29.051156 34.069562 20.296078 29.860687 11.955078 29.554688 C 11.821328 29.554688 11.643797 29.544812 11.441406 29.546875 z"/></svg>