<?xml version="1.0" encoding="UTF-8"?>
<svg
   xmlns:dc="http://purl.org/dc/elements/1.1/"
   xmlns:cc="http://creativecommons.org/ns#"
   xmlns:rdf="http://www.w3.org/1999/02/22-rdf-syntax-ns#"
   xmlns:svg="http://www.w3.org/2000/svg"
   xmlns="http://www.w3.org/2000/svg"
   id="svg8">
  <g
     id="layer1"
     transform="translate(-72.498518,-60.833914)">
    <path
       style="fill:#000000;stroke-width:0.264583"
       d="m 104.30072,150.68495 c -0.13392,-0.26247 -0.56328,-1.66784 -0.95412,-3.12305 -0.39084,-1.45521 -1.00787,-3.5388 -1.37117,-4.63021 -0.3633,-1.0914 -1.01618,-3.3535 -1.45083,-5.02689 -0.43466,-1.67339 -1.07484,-3.87604 -1.42263,-4.89479 -0.816096,-2.39053 -2.066737,-7.76667 -2.801352,-12.04223 -0.112845,-0.65676 -0.745464,-2.85942 -1.405822,-4.89479 -0.660355,-2.03537 -1.973715,-6.16326 -2.918576,-9.17309 -0.944861,-3.00983 -1.895516,-5.74827 -2.112567,-6.08542 -0.217051,-0.33714 -0.628913,-1.565492 -0.915248,-2.729659 -0.286336,-1.164167 -0.640981,-2.473854 -0.7881,-2.910416 -0.147119,-0.436563 -0.689151,-2.162969 -1.204515,-3.836459 -0.515365,-1.673489 -2.189611,-7.008291 -3.720547,-11.855113 l -2.78352,-8.812408 -1.509522,-1.719369 c -1.439871,-1.640034 -3.296732,-3.005176 -5.45149,-4.007868 -0.544223,-0.253247 -0.990708,-0.603219 -0.992188,-0.777714 -0.0028,-0.327855 1.253342,-1.361201 2.331551,-1.918046 1.089236,-0.562539 16.987039,-1.197891 18.604804,-0.743537 1.149702,0.322898 1.093608,0.871011 -0.274071,2.677966 -1.288399,1.70221 -2.144141,3.66138 -2.144141,4.908881 0,0.570629 3.696533,12.97714 6.352667,21.321167 0.416909,1.309687 2.495481,8.001076 4.619047,14.869755 3.63784,11.76655 4.49798,14.3667 4.75257,14.3667 0.19257,0 2.9646,-8.62113 7.40142,-23.018747 2.39917,-7.785365 5.18987,-16.834114 6.20155,-20.108333 2.83071,-9.161358 2.65927,-8.431393 2.30567,-9.817477 -0.17097,-0.670185 -0.73984,-1.802904 -1.26415,-2.517154 -1.05771,-1.440889 -0.99284,-2.013571 0.33327,-2.942416 0.74375,-0.520944 8.65451,-0.552586 14.06706,-0.05627 4.5553,0.417712 4.61757,0.568992 1.16312,2.825571 -3.37309,2.203433 -3.44252,2.322942 -5.95917,10.258784 -1.19985,3.783541 -2.96532,9.319947 -3.92327,12.303124 -0.95794,2.983177 -1.72567,5.662084 -1.70605,5.953125 0.0566,0.839941 -0.96401,4.222607 -1.98357,6.574145 -0.51439,1.186408 -2.56997,7.276788 -4.56795,13.534188 -1.99799,6.25739 -3.84869,11.7938 -4.11267,12.30312 -0.46161,0.8906 -1.31295,2.91212 -4.64195,11.02232 -1.66305,4.05156 -3.40331,9.1737 -4.12076,12.12873 -0.53875,2.21899 -1.24863,3.34673 -1.63278,2.59387 z"
       id="path24" />
  </g>
</svg>
