<?xml version="1.0" encoding="utf-8"?>
<!-- Generator: Adobe Adobe Illustrator 24.2.0, SVG Export Plug-In . SVG Version: 6.00 Build 0)  -->
<svg version="1.1" id="Layer_1" xmlns="http://www.w3.org/2000/svg" xmlns:xlink="http://www.w3.org/1999/xlink" x="0px" y="0px"
	 width="256px" height="256px" viewBox="0 0 256 256" style="enable-background:new 0 0 256 256;" xml:space="preserve">
<style type="text/css">
	.st0{fill-rule:evenodd;clip-rule:evenodd;}
	.st1{font-family:'Roboto-Bold';}
	.st2{font-size:51.6157px;}
</style>
<g>
	<g>
		<g>
			<path d="M181.52,48.09l-7.46,13.16c-1.16,2.03-4.08,2.05-5.26,0.04l-1.51-2.55l-1.42,0.83c-0.59-1.16-1.22-2.31-1.88-3.45
				c-0.83-1.46-1.72-2.88-2.64-4.28l1.4-0.81l-1.64-2.79c-1.18-2.01,0.26-4.56,2.6-4.58l15.14-0.11
				C181.19,43.53,182.67,46.04,181.52,48.09z"/>
		</g>
		<path d="M108.81,69.02l-12.74,6.81l-1.4,0.74c-5.02-1.51-9.89-3.47-14.6-5.74c-11.87-3.93-3.91-18.37,5.08-11.37
			c0.89,0.59,1.81,1.16,2.75,1.7c1.55,0.92,3.16,1.75,4.78,2.53C97.81,66.12,103.22,67.95,108.81,69.02z"/>
		<path d="M124.91,96.93c-0.39,1.11-0.74,2.25-1.07,3.38c-1,3.51-1.7,7.14-2.14,10.78c-0.28,2.71-0.48,5.43-0.44,8.16
			c0,0.98,0.04,1.96,0.11,2.95c1.72,7.2-7.86,11.48-11.76,5.02c-1.48-2.55-0.57-5.39-0.48-8.12c0.24-2.64,0.57-5.28,1.03-7.9
			c0.33-1.94,0.72-3.88,1.16-5.8l1.37-0.85l9.56-5.96L124.91,96.93z"/>
		<g>
			<path d="M136.02,77.14c-0.81,0.5-1.59,1-2.4,1.51c-2.49,1.55-4.98,3.1-7.46,4.65c-6.42,3.99-12.83,7.99-19.23,11.98
				c-3.91,2.44-7.81,4.87-11.72,7.31c-1.94,1.2-3.88,2.42-5.85,3.62c-1.16,0.63-2.27,0.89-3.32,0.89c-6.09,0-9.23-9.38-2.12-12.44
				c0.5-0.26,1.03-0.55,1.55-0.83c1.13-0.59,2.27-1.2,3.4-1.81c4.1-2.18,8.21-4.39,12.31-6.57c6.68-3.56,13.33-7.11,20.01-10.67
				c2.58-1.37,5.17-2.75,7.75-4.15c0.83-0.44,1.66-0.87,2.49-1.31c0.94,1.31,1.83,2.66,2.64,4.08
				C134.77,74.63,135.43,75.87,136.02,77.14z"/>
		</g>
		<path class="st0" d="M147.19,143.45c-0.48,0.57-1.03,1.03-1.61,1.37c-0.39,0.24-0.83,0.41-1.24,0.57
			c-0.28,0.09-0.59,0.17-0.89,0.22c-0.07,0.02-0.15,0.04-0.24,0.02c-0.28,0.07-0.59,0.09-0.87,0.09c-1.44,0-2.9-0.5-4.1-1.51
			c-2.68-2.27-3.01-6.28-0.74-8.97c11.3-13.4,15.91-30.88,13.09-47.64c-0.09-0.63-0.22-1.29-0.35-1.92
			c-0.11-0.63-0.26-1.27-0.41-1.9c-0.13-0.63-0.31-1.27-0.48-1.9c-0.15-0.61-0.33-1.2-0.52-1.79c-0.52-1.72-1.13-3.43-1.83-5.13
			c-0.17-0.46-0.37-0.89-0.57-1.33c-0.85-1.94-1.81-3.84-2.88-5.7c-0.35-0.59-0.7-1.18-1.05-1.75c-0.65-1.05-1.33-2.05-2.03-3.03
			c-0.81-1.13-1.66-2.25-2.55-3.32c-0.41-0.5-0.83-1-1.27-1.48c-0.92-1.05-1.88-2.05-2.86-3.01c-0.46-0.46-0.94-0.92-1.42-1.33
			c-0.39-0.37-0.81-0.72-1.2-1.07c-2.49-2.16-5.13-4.1-7.92-5.78c-0.46-0.28-0.94-0.57-1.42-0.83c-0.55-0.33-1.11-0.63-1.66-0.92
			c-0.41-0.22-0.81-0.41-1.22-0.61c-1.96-1-3.99-1.88-6.09-2.64c-0.37-0.13-0.74-0.26-1.13-0.39c-0.09-0.02-0.17-0.07-0.26-0.09
			c-1.42-0.48-2.84-0.89-4.3-1.27c-0.22-0.07-0.44-0.11-0.68-0.15c-1.72-0.44-3.49-0.79-5.26-1.03c-0.92-0.15-1.83-0.26-2.75-0.35
			c-1.05-0.11-2.12-0.17-3.16-0.22c-0.85-0.04-1.72-0.07-2.6-0.07c-0.02,0-0.02,0-0.04,0c-3.45,0-6.96,0.31-10.43,0.94
			c-0.39,0.07-0.76,0.11-1.13,0.11c-3.03,0-5.7-2.16-6.26-5.26c-0.61-3.45,1.68-6.76,5.15-7.38c3.69-0.68,7.38-1.05,11.04-1.11
			c0.55-0.02,1.09-0.02,1.64-0.02c1.13,0,2.27,0.02,3.38,0.09c0.89,0.04,1.77,0.09,2.64,0.17c0.96,0.07,1.9,0.17,2.84,0.28
			c1.35,0.17,2.68,0.37,4.02,0.63c0.61,0.09,1.22,0.22,1.83,0.35c0.13,0.02,0.26,0.04,0.39,0.09c0.92,0.2,1.81,0.39,2.71,0.63
			c1.92,0.48,3.82,1.05,5.7,1.72c1.24,0.41,2.47,0.87,3.69,1.37h0.02c0.87,0.37,1.77,0.74,2.62,1.16c0.76,0.35,1.53,0.7,2.27,1.09
			c0.24,0.11,0.48,0.24,0.72,0.35c0.72,0.37,1.46,0.76,2.16,1.18c0.85,0.46,1.68,0.96,2.51,1.46c1.31,0.81,2.6,1.64,3.84,2.53
			c0.13,0.09,0.26,0.17,0.37,0.28c0.83,0.59,1.66,1.2,2.47,1.83c0.09,0.07,0.2,0.13,0.28,0.22c0.96,0.74,1.88,1.53,2.79,2.33
			c0.02,0.02,0.04,0.04,0.07,0.07c0.85,0.74,1.68,1.51,2.49,2.31c0.85,0.81,1.68,1.64,2.47,2.51c0.26,0.26,0.52,0.55,0.76,0.83
			c0.7,0.76,1.37,1.53,2.03,2.33c0.04,0.07,0.11,0.13,0.17,0.22c0.74,0.89,1.44,1.81,2.14,2.75c0.74,0.98,1.44,1.99,2.14,3.03
			c0.24,0.37,0.5,0.76,0.74,1.16c0.57,0.87,1.11,1.77,1.64,2.68C169.73,87.9,166.5,120.61,147.19,143.45z"/>
	</g>
	<g>
		<g>
			<path d="M65.25,212.79L54.5,223.65c-1.19,1.09-2.79,1.81-4.52,1.81c-3.5,0-6.33-2.84-6.33-6.33v-0.9l3.62-26.71
				c0.76-8.36,7.75-14.91,16.29-14.91h32.58c8.54,0,15.53,6.55,16.29,14.91l3.62,26.71v0.9c0,3.5-2.84,6.33-6.33,6.33
				c-1.74,0-3.33-0.72-4.52-1.81l-10.75-10.86H65.25 M61.74,183.83v7.24H54.5v3.62h7.24v7.24h3.62v-7.24h7.24v-3.62h-7.24v-7.24
				H61.74 M96.13,183.83c-1.5,0-2.71,1.22-2.71,2.71s1.22,2.71,2.71,2.71c1.5,0,2.71-1.22,2.71-2.71S97.62,183.83,96.13,183.83
				 M89.79,190.17c-1.5,0-2.71,1.22-2.71,2.71s1.22,2.71,2.71,2.71s2.71-1.22,2.71-2.71S91.29,190.17,89.79,190.17 M102.46,190.17
				c-1.5,0-2.71,1.22-2.71,2.71s1.22,2.71,2.71,2.71c1.5,0,2.71-1.22,2.71-2.71S103.96,190.17,102.46,190.17 M96.13,196.5
				c-1.5,0-2.71,1.22-2.71,2.71c0,1.5,1.22,2.71,2.71,2.71c1.5,0,2.71-1.22,2.71-2.71C98.84,197.72,97.62,196.5,96.13,196.5z"/>
		</g>
		<text transform="matrix(1 0 0 1 130.4266 216.114)" class="st1 st2">GSI</text>
	</g>
</g>
</svg>
